<?xml version="1.0" encoding="UTF-8"?>
<svg version="1.1" xmlns="http://www.w3.org/2000/svg" width="32" height="32">
<path d="M0 0 C0.99 0 1.98 0 3 0 C3 0.99 3 1.98 3 3 C4.32 3.33 5.64 3.66 7 4 C7 4.66 7 5.32 7 6 C5.35 6.33 3.7 6.66 2 7 C2.19529297 7.92619141 2.19529297 7.92619141 2.39453125 8.87109375 C3.57268681 16.10518912 2.12025652 20.05662112 -2 26 C-2.66 26.99 -3.32 27.98 -4 29 C-3.01 29.33 -2.02 29.66 -1 30 C-1 30.66 -1 31.32 -1 32 C-5.62 32 -10.24 32 -15 32 C-15 31.34 -15 30.68 -15 30 C-13.68 30 -12.36 30 -11 30 C-11.49371094 29.28714844 -11.98742187 28.57429688 -12.49609375 27.83984375 C-19.22658667 17.77795997 -19.22658667 17.77795997 -19 12 C-17.74438396 8.15929212 -16.62701312 6.4627954 -13.375 4.0625 C-8.97487862 2.6772766 -5.47602942 3.17442124 -1 4 C-0.67 2.68 -0.34 1.36 0 0 Z M-10 6 C-6 7 -6 7 -6 7 Z M-1 11 C-1 12.98 -1 14.96 -1 17 C-0.67 17 -0.34 17 0 17 C0 15.02 0 13.04 0 11 C-0.33 11 -0.66 11 -1 11 Z M-16 12 C-15 16 -15 16 -15 16 Z M-12 12 C-11 16 -11 16 -11 16 Z M-5 13 C-4 16 -4 16 -4 16 Z M-10 17 C-6 18 -6 18 -6 18 Z M-2 17 C-1 19 -1 19 -1 19 Z M-13 20 C-12.38125 21.134375 -11.7625 22.26875 -11.125 23.4375 C-10.77695313 24.07558594 -10.42890625 24.71367187 -10.0703125 25.37109375 C-9.08589976 27.16618315 -9.08589976 27.16618315 -7 28 C-4.08828211 24.33019796 -4.08828211 24.33019796 -3 20 C-6.3 20 -9.6 20 -13 20 Z " fill="#D65FFF" transform="translate(22,0)"/>
</svg>
